<?xml version="1.0" standalone="no"?>
<!DOCTYPE svg PUBLIC "-//W3C//DTD SVG 20010904//EN"
 "http://www.w3.org/TR/2001/REC-SVG-20010904/DTD/svg10.dtd">
<svg version="1.0" xmlns="http://www.w3.org/2000/svg"
 width="300.000000pt" height="198.000000pt" viewBox="0 0 300.000000 198.000000"
 preserveAspectRatio="xMidYMid meet">
<metadata>
Created by potrace 1.10, written by Peter Selinger 2001-2011
</metadata>
<g transform="translate(0.000000,198.000000) scale(0.050000,-0.050000)"
fill="#000000" stroke="none">
<path d="M1620 3872 c-143 -41 -191 -65 -269 -134 -214 -187 -227 -516 -28
-664 78 -58 143 -30 68 29 -173 136 -50 359 232 420 167 35 943 -52 1171 -133
16 -5 -15 -91 -92 -254 -64 -135 -222 -511 -352 -836 -574 -1430 -870 -1792
-1332 -1629 -449 158 -301 850 182 849 69 -1 256 -40 325 -70 22 -9 35 -5 35
9 0 71 -308 128 -490 90 -810 -169 -777 -1362 42 -1508 511 -91 1000 290 1332
1038 92 207 96 212 180 237 307 93 955 242 1057 243 46 1 56 -14 108 -174 377
-1161 1097 -1670 1626 -1149 196 195 416 704 303 704 -9 0 -23 -25 -30 -55
-70 -291 -336 -431 -671 -353 -297 70 -466 249 -700 741 -160 338 -163 333
143 286 313 -47 295 -47 307 -6 15 48 -17 189 -48 208 -44 27 -328 65 -472 63
-170 -3 -155 -18 -266 266 -266 678 -522 1077 -775 1207 l-64 33 174 1 c288 2
393 84 344 272 -58 215 -306 309 -497 189 -77 -49 -243 -223 -243 -255 0 -35
-66 -14 -255 80 -502 249 -806 323 -1045 255z m1869 -331 c85 -93 -54 -195
-233 -170 -121 16 -137 48 -67 139 65 86 235 103 300 31z m-334 -341 c80 -49
127 -124 205 -325 77 -198 305 -1059 285 -1076 -8 -8 -141 -42 -295 -77 -413
-94 -534 -126 -594 -155 -106 -53 -160 -30 -118 49 22 42 153 549 252 974 87
377 165 650 186 650 8 0 43 -18 79 -40z"/>
</g>
</svg>
